<svg width="128" height="113" viewBox="0 0 128 113" fill="none" xmlns="http://www.w3.org/2000/svg">
<path opacity="0.2" d="M122.881 30.7204V102.4C122.881 103.758 122.342 105.061 121.381 106.021C120.421 106.981 119.119 107.52 117.761 107.52H15.3611C12.6453 107.52 10.0407 106.442 8.12032 104.521C6.19995 102.601 5.12109 99.9962 5.12109 97.2804V15.3604C5.12109 18.0762 6.19995 20.6808 8.12032 22.6011C10.0407 24.5215 12.6453 25.6004 15.3611 25.6004H117.761C119.119 25.6004 120.421 26.1398 121.381 27.1C122.342 28.0602 122.881 29.3624 122.881 30.7204Z" fill="#F5F4F4"/>
<path d="M117.76 20.48H15.36C14.0021 20.48 12.6998 19.9406 11.7396 18.9804C10.7794 18.0202 10.24 16.7179 10.24 15.36C10.24 14.0021 10.7794 12.6998 11.7396 11.7396C12.6998 10.7794 14.0021 10.24 15.36 10.24H102.4C103.758 10.24 105.06 9.70057 106.02 8.74039C106.981 7.7802 107.52 6.47791 107.52 5.12C107.52 3.76209 106.981 2.4598 106.02 1.49961C105.06 0.539428 103.758 0 102.4 0H15.36C11.2863 0 7.3794 1.61828 4.49884 4.49884C1.61828 7.3794 0 11.2863 0 15.36V97.28C0 101.354 1.61828 105.261 4.49884 108.141C7.3794 111.022 11.2863 112.64 15.36 112.64H117.76C120.476 112.64 123.08 111.561 125.001 109.641C126.921 107.72 128 105.116 128 102.4V30.72C128 28.0042 126.921 25.3996 125.001 23.4792C123.08 21.5589 120.476 20.48 117.76 20.48ZM117.76 102.4H15.36C14.0021 102.4 12.6998 101.861 11.7396 100.9C10.7794 99.9402 10.24 98.6379 10.24 97.28V29.8432C11.884 30.426 13.6158 30.7225 15.36 30.72H117.76V102.4ZM87.04 64C87.04 62.481 87.4904 60.9962 88.3343 59.7332C89.1782 58.4703 90.3777 57.4859 91.781 56.9046C93.1843 56.3233 94.7285 56.1712 96.2183 56.4676C97.7081 56.7639 99.0765 57.4954 100.151 58.5694C101.225 59.6435 101.956 61.0119 102.252 62.5017C102.549 63.9915 102.397 65.5357 101.815 66.939C101.234 68.3423 100.25 69.5418 98.9868 70.3857C97.7238 71.2296 96.239 71.68 94.72 71.68C92.6831 71.68 90.7297 70.8709 89.2894 69.4306C87.8491 67.9903 87.04 66.0369 87.04 64Z" fill="#F5F4F4"/>
</svg>
